{"title":"Family.Guy.S14E11.HDTV.480p.MICRO-REPACK","uid":13204393,"size":61811753,"categoryP":"video","categoryS":"hd___tv_shows","magnet":"?xt=urn:btih:9d9683808e43466bc5cf4a191824eb634398cdbd&amp;dn=Family.Guy.S14E11.HDTV.480p.MICRO-REPACK&amp;tr=udp%3A%2F%2Ftracker.leechers-paradise.org%3A6969&amp;tr=udp%3A%2F%2Fzer0day.ch%3A1337&amp;tr=udp%3A%2F%2Fopen.demonii.com%3A1337&amp;tr=udp%3A%2F%2Ftracker.coppersurfer.tk%3A6969&amp;tr=udp%3A%2F%2Fexodus.desync.com%3A6969","seeders":0,"leechers":0,"uploader":"mr98321","files":2,"time":1452578671,"description":"MICRO-REPACK\r\n\r\n\r\nGeneral\r\nFormat                                   : MPEG-4\r\nFormat profile                           : Base Media / Version 2\r\nCodec ID                                 : mp42 (isom/iso2/avc1/mp41)\r\nFile size                                : 58.9 MiB\r\nDuration                                 : 21mn 30s\r\nOverall bit rate mode                    : Variable\r\nOverall bit rate                         : 383 Kbps\r\n\r\n\r\nVideo\r\nID                                       : 1\r\nFormat                                   : AVC\r\nFormat/Info                              : Advanced Video Codec\r\nFormat profile                           :   \r\nFormat settings, CABAC                   : Yes\r\nFormat settings, ReFrames                : 16 frames\r\nCodec ID                                 : avc1\r\nCodec ID/Info                            : Advanced Video Coding\r\nDuration                                 : 21mn 30s\r\nBit rate                                 : 219 Kbps\r\nWidth                                    : 848 pixels\r\nHeight                                   : 480 pixels\r\nDisplay aspect ratio                     : 16:9\r\nFrame rate mode                          : Variable\r\nFrame rate                               : 23.976 (24000/1001) fps\r\nMinimum frame rate                       : 23.974 fps\r\nMaximum frame rate                       : 23.981 fps\r\nColor space                              : YUV\r\nChroma subsampling                       : 4:2:0\r\nBit depth                                : 8 bits\r\nScan type                                : Progressive\r\nBits/(Pixel*Frame)                       : 0.022\r\nStream size                              : 33.7 MiB (57%)\r\n\r\n\r\nAudio\r\nID                                       : 2\r\nFormat                                   : AAC\r\nFormat/Info                              : Advanced Audio Codec\r\nFormat profile                           : LC\r\nCodec ID                                 : 40\r\nDuration                                 : 21mn 30s\r\nBit rate mode                            : Variable\r\nBit rate                                 : 158 Kbps\r\nChannel(s)                               : 2 channels\r\nChannel positions                        : Front: L R\r\nSampling rate                            : 48.0 KHz\r\nFrame rate                               : 46.875 fps (1024 spf)\r\nCompression mode                         : Lossy\r\nStream size                              : 24.3 MiB (41%)","torrent":{"xt":"urn:btih:9d9683808e43466bc5cf4a191824eb634398cdbd","amp;dn":"Family.Guy.S14E11.HDTV.480p.MICRO-REPACK","amp;tr":["udp%3A%2F%2Ftracker.leechers-paradise.org%3A6969","udp%3A%2F%2Fzer0day.ch%3A1337","udp%3A%2F%2Fopen.demonii.com%3A1337","udp%3A%2F%2Ftracker.coppersurfer.tk%3A6969","udp%3A%2F%2Fexodus.desync.com%3A6969"],"infoHash":"9d9683808e43466bc5cf4a191824eb634398cdbd","infoHashBuffer":{"type":"Buffer","data":[157,150,131,128,142,67,70,107,197,207,74,25,24,36,235,99,67,152,205,189]},"announce":[],"urlList":[]}}